<?xml version="1.0" encoding="UTF-8"?>
<svg version="1.1" xmlns="http://www.w3.org/2000/svg" width="1024" height="1024">
<path d="M0 0 C337.92 0 675.84 0 1024 0 C1024 337.92 1024 675.84 1024 1024 C686.08 1024 348.16 1024 0 1024 C0 686.08 0 348.16 0 0 Z " fill="#FAFCFE" transform="translate(0,0)"/>
<path d="M0 0 C6.86977414 2.31277262 13.6821581 4.78947067 20.5 7.25 C22.31236961 7.90010321 24.12486891 8.54984497 25.9375 9.19921875 C35.36198167 12.58065441 44.76612828 16.01383043 54.15667725 19.48826599 C59.12649228 21.32248485 64.10999601 23.11137467 69.109375 24.86328125 C79.35870268 28.45651031 89.55591099 32.19209278 99.75894165 35.91430664 C118.97423001 42.92214641 138.20243089 49.8929624 157.45578003 56.79562378 C160.79111704 57.99232789 164.12523919 59.1923694 167.45922852 60.39282227 C177.11873152 63.86480966 186.78552015 67.29283213 196.5234375 70.5390625 C198.85832903 71.32673107 201.19277853 72.11569864 203.52719116 72.90478516 C205.58970738 73.59239739 207.65958925 74.25212551 209.73168945 74.91015625 C218.23829483 77.77939676 223.83065336 81.50179993 230 88 C230.91084351 88.92570801 230.91084351 88.92570801 231.84008789 89.87011719 C233.48845132 91.57361064 235.09237867 93.30916258 236.6875 95.0625 C237.88257874 96.35828855 239.07789999 97.65385346 240.2734375 98.94921875 C240.88155273 99.61099121 241.48966797 100.27276367 242.11621094 100.95458984 C245.33052737 104.44468096 248.57017689 107.91094119 251.8125 111.375 C252.43930664 112.04619873 253.06611328 112.71739746 253.71191406 113.40893555 C257.88410687 117.8602695 262.14343206 122.18655213 266.55859375 126.3984375 C268 128 268 128 268 130 C268.88969482 130.39505737 268.88969482 130.39505737 269.79736328 130.7980957 C272.09746845 132.05318523 273.47572641 133.30992131 275.2421875 135.23046875 C275.83386719 135.86919922 276.42554688 136.50792969 277.03515625 137.16601562 C277.64230469 137.83310547 278.24945312 138.50019531 278.875 139.1875 C279.77412109 140.15913086 279.77412109 140.15913086 280.69140625 141.15039062 C283.56882039 144.27435109 286.38789632 147.43474298 289.1328125 150.67578125 C291.62090891 153.60086405 294.24606672 156.32037921 297 159 C302.58719405 164.51302776 308.09547409 169.99685091 313.19140625 175.97265625 C316.17161659 179.313324 319.39830594 182.40558817 322.58203125 185.55078125 C324.70682142 187.70303236 326.71537184 189.89628594 328.6875 192.1875 C330.98716706 194.84513411 333.2900112 197.49231074 335.6875 200.0625 C336.22761719 200.65160156 336.76773437 201.24070312 337.32421875 201.84765625 C338.91934206 203.22568374 338.91934206 203.22568374 340.83227539 202.72290039 C343.22986835 201.9233427 345.18553453 200.87609917 347.359375 199.5859375 C348.2150708 199.08022217 349.0707666 198.57450684 349.95239258 198.0534668 C350.87560303 197.49957275 351.79881348 196.94567871 352.75 196.375 C353.72155029 195.79596924 354.69310059 195.21693848 355.6940918 194.62036133 C372.20422961 184.73488165 388.42899936 174.39416429 404.61962891 163.99658203 C412.94954426 158.65328108 421.33273018 153.3990326 429.73193359 148.16552734 C435.05007258 144.84978253 440.35618141 141.51860506 445.625 138.125 C446.68074219 137.44824219 447.73648437 136.77148438 448.82421875 136.07421875 C451.14103949 134.56101849 453.42816757 133.02518648 455.70703125 131.45703125 C456.33077637 131.03599121 456.95452148 130.61495117 457.59716797 130.18115234 C458.78112853 129.38106013 459.95678949 128.56847172 461.12158203 127.74072266 C465.22088737 124.99429897 468.12611164 124.15166245 473 125 C475.6371831 126.65037558 477.74781775 128.67777579 479.9375 130.875 C480.52595703 131.43058594 481.11441406 131.98617187 481.72070312 132.55859375 C483.20080582 133.98540587 484.60721516 135.48783361 486 137 C486 137.66 486 138.32 486 139 C486.66 139 487.32 139 488 139 C488 139.66 488 140.32 488 141 C488.53109375 141.20238281 489.0621875 141.40476562 489.609375 141.61328125 C493.04132937 143.60403909 495.5114173 146.34309385 498.25 149.1875 C501.69645657 152.74607022 505.1656635 156.19187775 508.921875 159.42578125 C513.88039527 163.70408204 518.41703122 168.36658261 523 173.0390625 C526.91561959 177.00056825 530.93621009 180.74406719 535.15625 184.37890625 C538.65393365 187.45420014 541.84110509 190.8252281 545.09375 194.15625 C547.23174922 196.29802928 549.45982103 198.29550376 551.75 200.2734375 C556.49899433 204.39117951 561.01627314 208.7216005 565.5 213.125 C566.32242188 213.91003906 567.14484375 214.69507813 567.9921875 215.50390625 C569.15621094 216.65052734 569.15621094 216.65052734 570.34375 217.8203125 C571.04693359 218.50367676 571.75011719 219.18704102 572.47460938 219.89111328 C574.3388861 222.46851763 574.3938799 223.88530881 574 227 C573 228 573 228 570.65002441 228.08901978 C569.60342651 228.07205048 568.55682861 228.05508118 567.47851562 228.03759766 C566.28955688 228.02072906 565.10059814 228.00386047 563.87561035 227.98648071 C562.56572144 227.9625827 561.25583252 227.93868469 559.90625 227.9140625 C558.52616988 227.89221688 557.14608339 227.87077106 555.76599121 227.84970093 C552.83677253 227.80393532 549.90763561 227.75481872 546.97851562 227.703125 C543.36144027 227.63931847 539.74430995 227.58094929 536.12710571 227.52498245 C512.74794492 227.16186359 489.37418435 226.59801786 466 226 C465.94180084 227.2306015 465.88360168 228.461203 465.82363892 229.72909546 C465.27295516 241.3521251 464.71427886 252.97474699 464.1478672 264.5970211 C463.85695607 270.57149679 463.56881767 276.54607884 463.28710938 282.52099609 C463.01491113 288.29200707 462.73530745 294.06261681 462.45066452 299.83302689 C462.34359802 302.02959235 462.23915622 304.22628744 462.13743973 306.42310715 C461.99401492 309.51081311 461.84108447 312.59791742 461.68603516 315.68505859 C461.64647202 316.58417969 461.60690887 317.48330078 461.56614685 318.40966797 C460.60487595 336.75060008 460.60487595 336.75060008 454.34594727 342.52636719 C449.64213717 346.61074791 444.8831743 350.61690531 440.0625 354.5625 C438.56900865 355.78906035 437.07551912 357.01562291 435.58203125 358.2421875 C434.0547288 359.49484203 432.52738518 360.74744635 431 362 C422.46282652 369.00553162 413.9397051 376.02223449 405.52368164 383.1730957 C400.40451593 387.51777213 395.21088933 391.76615242 390 396 C388.74984568 397.02064434 387.49985625 398.04149067 386.25 399.0625 C379.73591675 404.37687062 373.19723524 409.64932781 366.5625 414.8125 C361.92855691 418.42211812 357.47357358 422.16829899 353.125 426.1171875 C350.092599 428.80398398 346.91213545 431.28916623 343.734375 433.80078125 C340.60931515 436.31422224 337.55247292 438.89935 334.5 441.5 C330.00513416 445.3253073 325.4566166 449.06217892 320.83203125 452.73046875 C314.91430621 457.47281116 309.08591133 462.32561957 303.23779297 467.15332031 C299.66088207 470.10507179 296.08032894 473.05239624 292.5 476 C288.17916131 479.55795545 283.85865305 483.11631054 279.5390625 486.67578125 C260.61763775 502.26633577 260.61763775 502.26633577 252.23046875 509.05078125 C245.89176722 514.18167535 239.57470147 519.32651784 233.375 524.625 C228.43995014 528.84089471 223.38632671 532.87562051 218.25634766 536.85131836 C213.40104768 540.63273221 208.71047619 544.58839649 204.0859375 548.6484375 C200.21345766 552 200.21345766 552 198 552 C197.62875 553.60875 197.62875 553.60875 197.25 555.25 C193.68982808 569.46525788 193.68982808 569.46525788 190 575 C187.86230469 576.23583984 187.86230469 576.23583984 185.171875 577.4609375 C184.15907471 577.92604736 183.14627441 578.39115723 182.1027832 578.87036133 C180.99636475 579.36689209 179.88994629 579.86342285 178.75 580.375 C177.60426514 580.89666748 176.45853027 581.41833496 175.27807617 581.95581055 C165.0444847 586.58990271 154.73532248 591.04951945 144.41625977 595.48925781 C137.16076743 598.61295839 129.97308627 601.82927318 122.8359375 605.21484375 C105.16563482 613.51863006 87.09421222 621.03257193 69.12841797 628.66796875 C66.29209405 629.87563094 63.46022003 631.09315543 60.62890625 632.3125 C59.1070898 632.95908458 57.58498202 633.60498418 56.0625 634.25 C55.40121094 634.5377832 54.73992187 634.82556641 54.05859375 635.12207031 C50.58763797 636.57507148 47.77258361 637.41686007 44 637 C43 636 43 636 42.99530029 634.21443176 C43.54444443 628.49185456 44.9567116 624.09888915 47.578125 619.01171875 C48.12197845 617.91391335 48.12197845 617.91391335 48.67681885 616.79393005 C49.45297073 615.23067295 50.23525736 613.6704489 51.02319336 612.11309814 C52.69758209 608.80255673 54.34073537 605.47683738 55.98583984 602.15167236 C56.8180002 600.47022516 57.65165901 598.78951872 58.48681641 597.10955811 C61.93638552 590.16456987 65.2557858 583.16863035 68.5 576.125 C69.00668213 575.02744385 69.51336426 573.9298877 70.03540039 572.79907227 C71.39137536 569.85654575 72.7446218 566.91278575 74.09625244 563.96826172 C77.2875967 557.0178687 80.4868995 550.07113432 83.6875 543.125 C84.25517593 541.89253036 84.25517593 541.89253036 84.83432007 540.63516235 C91.32351028 526.55353871 97.9307082 512.53030479 104.5871582 498.52709961 C109.0657004 489.10276079 113.4980506 479.65948688 117.875 470.1875 C121.84794565 461.59084107 125.88425436 453.0292175 130 444.5 C137.68445125 428.56517857 145.08236419 412.49871912 152.48880005 396.43344116 C153.30859771 394.65526357 154.12848293 392.87712634 154.94845581 391.09902954 C156.96596509 386.72408249 158.98245608 382.34867374 160.99658203 377.97216797 C161.73987907 376.35903575 162.48320458 374.74591666 163.2265625 373.1328125 C163.56353149 372.39959778 163.90050049 371.66638306 164.24768066 370.91094971 C164.56636108 370.2199115 164.8850415 369.52887329 165.21337891 368.81689453 C165.51076965 368.16529358 165.8081604 367.51369263 166.11456299 366.84234619 C166.95101681 365.10192028 167.90320454 363.41850331 168.86083984 361.74169922 C170.28308986 359.12986077 170.28308986 359.12986077 169.36694336 356.85107422 C167.9901356 354.98664192 166.62040233 353.15760022 165.12890625 351.3828125 C164.56010742 350.70049561 163.99130859 350.01817871 163.40527344 349.31518555 C162.7971582 348.59242432 162.18904297 347.86966309 161.5625 347.125 C157.04595359 341.70433239 152.58082806 336.25784636 148.25 330.6875 C144.0059584 325.2367733 139.64041437 319.90566517 135.19140625 314.62109375 C134.46824219 313.75613281 133.74507812 312.89117187 133 312 C132.24589844 311.10410156 131.49179687 310.20820313 130.71484375 309.28515625 C129 307 129 307 129 305 C128.34 305 127.68 305 127 305 C125.58984375 303.41796875 125.58984375 303.41796875 123.9375 301.1875 C121.27699525 297.66575969 118.56178277 294.2149086 115.75 290.8125 C112.13190736 286.40216983 108.54714492 281.96748209 105 277.5 C104.51885742 276.90034424 104.03771484 276.30068848 103.54199219 275.68286133 C101.52541263 273.13087772 100.03723067 271.111692 99 268 C98.34 268 97.68 268 97 268 C95.73046875 266.59375 95.73046875 266.59375 94.1875 264.5 C90.8046332 260.01998722 87.30382456 255.65675581 83.75 251.3125 C79.56743973 246.18902848 75.43754783 241.03157709 71.375 235.8125 C67.34396152 230.64061539 63.17751507 225.60583039 58.92016602 220.61914062 C54.83628426 215.83098938 50.90327586 210.93554716 47 206 C42.22704138 200.00516397 37.41303158 194.04692865 32.5546875 188.12109375 C27.85333601 182.38273479 23.1800131 176.62158858 18.50976562 170.85791016 C17.142404 169.17524167 15.76808565 167.49862025 14.390625 165.82421875 C13.30007813 164.48810547 13.30007813 164.48810547 12.1875 163.125 C11.56230469 162.36445313 10.93710937 161.60390625 10.29296875 160.8203125 C9 159 9 159 9 157 C8.34 157 7.68 157 7 157 C5.33697684 155.05672664 3.78750047 153.10230343 2.25 151.0625 C-2.126298 145.36925022 -6.60566131 139.77923218 -11.1875 134.25 C-15.46757448 129.07593161 -19.71873258 123.88466286 -23.8984375 118.62890625 C-26.64290055 115.19577682 -29.41461276 111.78518766 -32.1875 108.375 C-32.73809082 107.69751709 -33.28868164 107.02003418 -33.85595703 106.32202148 C-36.73849541 102.77649096 -39.62479563 99.23408638 -42.515625 95.6953125 C-43.08901611 94.99229004 -43.66240723 94.28926758 -44.25317383 93.56494141 C-45.33763549 92.23541876 -46.42331495 90.90688803 -47.51049805 89.57958984 C-49.01901076 87.72897276 -50.51337105 85.86823645 -52 84 C-52.56549561 83.29286865 -53.13099121 82.5857373 -53.71362305 81.85717773 C-54.53987183 80.79672241 -54.53987183 80.79672241 -55.3828125 79.71484375 C-55.88570801 79.07409912 -56.38860352 78.43335449 -56.90673828 77.77319336 C-58 76 -58 76 -57.9375 73.0625 C-57 71 -57 71 -56 70 C-48.12714759 69.97282701 -40.7546823 72.31524598 -33.3125 74.625 C-32.12769043 74.98400391 -30.94288086 75.34300781 -29.72216797 75.71289062 C-26.14503084 76.7988158 -22.57194519 77.8971297 -19 79 C-15.2089907 80.16881804 -11.41759809 81.3363466 -7.625 82.5 C-6.26616699 82.9172937 -6.26616699 82.9172937 -4.87988281 83.34301758 C10.28367209 87.95761208 25.60222653 92.24118789 41 96 C40.69408936 95.49364014 40.38817871 94.98728027 40.07299805 94.46557617 C34.53562335 85.29091643 29.02760077 76.10365218 23.6875 66.8125 C19.46341694 59.46640262 15.12682761 52.19352291 10.75 44.9375 C5.3059613 35.90483415 -0.04418422 26.82335702 -5.3125 17.6875 C-6.2730127 16.02352173 -6.2730127 16.02352173 -7.25292969 14.32592773 C-14.05642529 2.4937213 -14.05642529 2.4937213 -13.75 -0.1875 C-11.53406836 -5.54266814 -4.01714912 -1.26823458 0 0 Z " fill="#6B50FE" transform="translate(253,195)"/>
<path d="M0 0 C6.86977414 2.31277262 13.6821581 4.78947067 20.5 7.25 C22.31236961 7.90010321 24.12486891 8.54984497 25.9375 9.19921875 C35.36198167 12.58065441 44.76612828 16.01383043 54.15667725 19.48826599 C59.12649228 21.32248485 64.10999601 23.11137467 69.109375 24.86328125 C79.35897533 28.45660589 89.55646069 32.19227603 99.75976562 35.9145813 C120.15348822 43.35234853 140.5646674 50.73975743 161 58.0625 C162.1048172 58.45866516 163.2096344 58.85483032 164.34793091 59.26300049 C174.93415548 63.05827056 185.52351553 66.84325425 196.13671875 70.5625 C196.88825226 70.82647079 197.63978577 71.09044159 198.41409302 71.3624115 C201.77424753 72.54260425 205.13585879 73.71795714 208.50195312 74.88110352 C209.61892578 75.27225342 210.73589844 75.66340332 211.88671875 76.06640625 C212.83764404 76.39584229 213.78856934 76.72527832 214.76831055 77.06469727 C217 78 217 78 219 80 C218.71484375 82.5703125 218.71484375 82.5703125 217.9375 86.125 C216.22873188 94.44061135 214.86541892 102.7997263 213.5625 111.1875 C213.45585022 111.87132751 213.34920044 112.55515503 213.23931885 113.25970459 C211.47878892 124.57560086 209.85977839 135.90714549 208.34399414 147.25854492 C207.66640293 152.31011436 206.95945773 157.34487143 206.08984375 162.3671875 C204.57828472 171.24586836 203.42648091 180.17923709 202.20062256 189.10079956 C199.70002715 207.26999778 197.06007062 225.40543889 194.13647461 243.51123047 C192.89672967 251.20837987 191.70625996 258.90827699 190.62109375 266.62890625 C190.50973083 267.42046616 190.39836792 268.21202606 190.28363037 269.02757263 C189.7590837 272.77107965 189.24225811 276.51547372 188.73583984 280.26147461 C187.70118561 287.8042074 186.3695591 295.20659512 184.70996094 302.63745117 C183.79343276 306.97835304 183.13322044 311.33640399 182.49169922 315.72509766 C181.98618709 319.09199922 181.4087753 322.44032119 180.81640625 325.79296875 C178.27683292 340.53804853 176.49477555 355.18270969 175.5 370.109375 C175.37429914 371.93082637 175.24852917 373.75227298 175.12269592 375.57371521 C173.7078778 396.36759371 172.64257731 417.18114177 171.59277344 437.99603271 C171.33407867 443.10494931 171.07002744 448.21358917 170.80664062 453.32226562 C170.34328031 462.3227644 169.88845091 471.32366672 169.43823624 480.32483196 C169.15141154 486.04290002 168.85607553 491.7604442 168.55338383 497.47769356 C167.53833263 516.68537354 166.69349485 535.82124164 166.875 555.0625 C166.88511855 557.04361492 166.89422772 559.02473524 166.90234375 561.00585938 C166.9235007 565.67071782 166.95745967 570.33528971 167 575 C175.61490023 570.11201064 183.49591099 564.53457232 191.1875 558.28515625 C193 557 193 557 195 557 C195.33 556.01 195.66 555.02 196 554 C197.6968806 558.10336581 196.17966396 561.06518191 194.6875 565.0625 C194.23761719 566.29097656 193.78773438 567.51945313 193.32421875 568.78515625 C191.34583011 573.58814695 189.80629166 575.35063779 185.171875 577.4609375 C184.15907471 577.92604736 183.14627441 578.39115723 182.1027832 578.87036133 C180.99636475 579.36689209 179.88994629 579.86342285 178.75 580.375 C177.60426514 580.89666748 176.45853027 581.41833496 175.27807617 581.95581055 C165.0444847 586.58990271 154.73532248 591.04951945 144.41625977 595.48925781 C137.16076743 598.61295839 129.97308627 601.82927318 122.8359375 605.21484375 C105.16563482 613.51863006 87.09421222 621.03257193 69.12841797 628.66796875 C66.29209405 629.87563094 63.46022003 631.09315543 60.62890625 632.3125 C59.1070898 632.95908458 57.58498202 633.60498418 56.0625 634.25 C55.40121094 634.5377832 54.73992187 634.82556641 54.05859375 635.12207031 C50.58763797 636.57507148 47.77258361 637.41686007 44 637 C43 636 43 636 42.99530029 634.21443176 C43.54444443 628.49185456 44.9567116 624.09888915 47.578125 619.01171875 C48.12197845 617.91391335 48.12197845 617.91391335 48.67681885 616.79393005 C49.45297073 615.23067295 50.23525736 613.6704489 51.02319336 612.11309814 C52.69758209 608.80255673 54.34073537 605.47683738 55.98583984 602.15167236 C56.8180002 600.47022516 57.65165901 598.78951872 58.48681641 597.10955811 C61.93638552 590.16456987 65.2557858 583.16863035 68.5 576.125 C69.00668213 575.02744385 69.51336426 573.9298877 70.03540039 572.79907227 C71.39137536 569.85654575 72.7446218 566.91278575 74.09625244 563.96826172 C77.2875967 557.0178687 80.4868995 550.07113432 83.6875 543.125 C84.25517593 541.89253036 84.25517593 541.89253036 84.83432007 540.63516235 C91.32351028 526.55353871 97.9307082 512.53030479 104.5871582 498.52709961 C109.0657004 489.10276079 113.4980506 479.65948688 117.875 470.1875 C121.84794565 461.59084107 125.88425436 453.0292175 130 444.5 C137.68445125 428.56517857 145.08236419 412.49871912 152.48880005 396.43344116 C153.30859771 394.65526357 154.12848293 392.87712634 154.94845581 391.09902954 C156.96596509 386.72408249 158.98245608 382.34867374 160.99658203 377.97216797 C161.73987907 376.35903575 162.48320458 374.74591666 163.2265625 373.1328125 C163.56353149 372.39959778 163.90050049 371.66638306 164.24768066 370.91094971 C164.56636108 370.2199115 164.8850415 369.52887329 165.21337891 368.81689453 C165.51076965 368.16529358 165.8081604 367.51369263 166.11456299 366.84234619 C166.95101681 365.10192028 167.90320454 363.41850331 168.86083984 361.74169922 C170.28308986 359.12986077 170.28308986 359.12986077 169.36694336 356.85107422 C167.9901356 354.98664192 166.62040233 353.15760022 165.12890625 351.3828125 C164.56010742 350.70049561 163.99130859 350.01817871 163.40527344 349.31518555 C162.7971582 348.59242432 162.18904297 347.86966309 161.5625 347.125 C157.04595359 341.70433239 152.58082806 336.25784636 148.25 330.6875 C144.0059584 325.2367733 139.64041437 319.90566517 135.19140625 314.62109375 C134.46824219 313.75613281 133.74507812 312.89117187 133 312 C132.24589844 311.10410156 131.49179687 310.20820313 130.71484375 309.28515625 C129 307 129 307 129 305 C128.34 305 127.68 305 127 305 C125.58984375 303.41796875 125.58984375 303.41796875 123.9375 301.1875 C121.27699525 297.66575969 118.56178277 294.2149086 115.75 290.8125 C112.13190736 286.40216983 108.54714492 281.96748209 105 277.5 C104.51885742 276.90034424 104.03771484 276.30068848 103.54199219 275.68286133 C101.52541263 273.13087772 100.03723067 271.111692 99 268 C98.34 268 97.68 268 97 268 C95.73046875 266.59375 95.73046875 266.59375 94.1875 264.5 C90.8046332 260.01998722 87.30382456 255.65675581 83.75 251.3125 C79.56743973 246.18902848 75.43754783 241.03157709 71.375 235.8125 C67.34396152 230.64061539 63.17751507 225.60583039 58.92016602 220.61914062 C54.83628426 215.83098938 50.90327586 210.93554716 47 206 C42.22704138 200.00516397 37.41303158 194.04692865 32.5546875 188.12109375 C27.85333601 182.38273479 23.1800131 176.62158858 18.50976562 170.85791016 C17.142404 169.17524167 15.76808565 167.49862025 14.390625 165.82421875 C13.30007813 164.48810547 13.30007813 164.48810547 12.1875 163.125 C11.56230469 162.36445313 10.93710937 161.60390625 10.29296875 160.8203125 C9 159 9 159 9 157 C8.34 157 7.68 157 7 157 C5.33697684 155.05672664 3.78750047 153.10230343 2.25 151.0625 C-2.126298 145.36925022 -6.60566131 139.77923218 -11.1875 134.25 C-15.46757448 129.07593161 -19.71873258 123.88466286 -23.8984375 118.62890625 C-26.64290055 115.19577682 -29.41461276 111.78518766 -32.1875 108.375 C-32.73809082 107.69751709 -33.28868164 107.02003418 -33.85595703 106.32202148 C-36.73849541 102.77649096 -39.62479563 99.23408638 -42.515625 95.6953125 C-43.08901611 94.99229004 -43.66240723 94.28926758 -44.25317383 93.56494141 C-45.33763549 92.23541876 -46.42331495 90.90688803 -47.51049805 89.57958984 C-49.01901076 87.72897276 -50.51337105 85.86823645 -52 84 C-52.56549561 83.29286865 -53.13099121 82.5857373 -53.71362305 81.85717773 C-54.53987183 80.79672241 -54.53987183 80.79672241 -55.3828125 79.71484375 C-55.88570801 79.07409912 -56.38860352 78.43335449 -56.90673828 77.77319336 C-58 76 -58 76 -57.9375 73.0625 C-57 71 -57 71 -56 70 C-48.12714759 69.97282701 -40.7546823 72.31524598 -33.3125 74.625 C-32.12769043 74.98400391 -30.94288086 75.34300781 -29.72216797 75.71289062 C-26.14503084 76.7988158 -22.57194519 77.8971297 -19 79 C-15.2089907 80.16881804 -11.41759809 81.3363466 -7.625 82.5 C-6.26616699 82.9172937 -6.26616699 82.9172937 -4.87988281 83.34301758 C10.28367209 87.95761208 25.60222653 92.24118789 41 96 C40.69408936 95.49364014 40.38817871 94.98728027 40.07299805 94.46557617 C34.53562335 85.29091643 29.02760077 76.10365218 23.6875 66.8125 C19.46341694 59.46640262 15.12682761 52.19352291 10.75 44.9375 C5.3059613 35.90483415 -0.04418422 26.82335702 -5.3125 17.6875 C-6.2730127 16.02352173 -6.2730127 16.02352173 -7.25292969 14.32592773 C-14.05642529 2.4937213 -14.05642529 2.4937213 -13.75 -0.1875 C-11.53406836 -5.54266814 -4.01714912 -1.26823458 0 0 Z " fill="#5E42FE" transform="translate(253,195)"/>
<path d="M0 0 C7.26140237 0.64918615 13.9018549 2.475423 20.84838867 4.63134766 C22.03319824 4.99035156 23.21800781 5.34935547 24.4387207 5.71923828 C28.01585783 6.80516346 31.58894348 7.90347736 35.16088867 9.00634766 C38.95189803 10.17516571 42.74335627 11.34248029 46.53588867 12.50634766 C47.44250244 12.78526855 48.34911621 13.06418945 49.28320312 13.3515625 C58.54599692 16.17434087 67.88163464 18.7282113 77.22875977 21.25439453 C79.51876945 21.8760821 81.80600072 22.50812693 84.08984375 23.15209961 C85.99400698 23.68176549 87.90719952 24.18120776 89.83154297 24.63208008 C94.08135032 25.74707858 96.45924176 26.81925918 98.94604492 30.52587891 C99.7332047 31.94163511 100.49139015 33.37379946 101.22338867 34.81884766 C101.63693604 35.57641357 102.0504834 36.33397949 102.4765625 37.11450195 C103.32068676 38.66241462 104.15404977 40.21624634 104.97631836 41.77587891 C106.68974215 45.00214432 108.51963776 48.15708886 110.34838867 51.31884766 C110.99420898 52.45451172 111.6400293 53.59017578 112.30541992 54.76025391 C114.02714488 57.77236641 115.77628701 60.76625532 117.53588867 63.75634766 C120.37854455 68.61388829 123.12516262 73.51887573 125.84838867 78.44384766 C136.47444489 97.64965724 147.40923024 116.68580445 158.91088867 135.38134766 C162.25495421 140.81702616 165.44970713 146.27991484 168.44604492 151.91650391 C170.86895109 156.28215032 173.45569363 160.54476901 176.03588867 164.81884766 C180.08849163 171.53395592 184.06396971 178.27601234 187.93041992 185.10009766 C190.81711507 190.17786615 193.7753645 195.21403675 196.72338867 200.25634766 C200.56150854 206.82240469 204.39084687 213.3932132 208.18823242 219.98291016 C208.68801353 220.85018738 208.68801353 220.85018738 209.19789124 221.73498535 C210.80377123 224.5227666 212.40801524 227.31147899 214.01074219 230.10107422 C217.23740457 235.70857055 220.51608844 241.27836713 223.85717773 246.81835938 C226.43158292 251.13892479 228.77685073 255.57884863 231.16088867 260.00634766 C232.81088867 252.08634766 234.46088867 244.16634766 236.16088867 236.00634766 C236.49088867 236.00634766 236.82088867 236.00634766 237.16088867 236.00634766 C237.36983069 242.83875153 236.62121649 249.00300295 235.28588867 255.69384766 C232.41609755 270.39355553 230.71346156 284.95242741 229.69604492 299.87744141 C229.63332964 300.77537352 229.57061436 301.67330563 229.50599861 302.5984478 C227.9866611 324.38497381 226.85370537 346.19137247 225.75366211 368.00238037 C225.49496734 373.11129697 225.23091611 378.21993683 224.9675293 383.32861328 C224.50416899 392.32911206 224.04933958 401.33001438 223.59912491 410.33117962 C223.31230021 416.04924768 223.01696421 421.76679186 222.7142725 427.48404121 C221.6992213 446.6917212 220.85438352 465.8275893 221.03588867 485.06884766 C221.04600723 487.04996257 221.05511639 489.0310829 221.06323242 491.01220703 C221.08438937 495.67706548 221.11834835 500.34163736 221.16088867 505.00634766 C229.7757889 500.11835829 237.65679966 494.54091998 245.34838867 488.29150391 C247.16088867 487.00634766 247.16088867 487.00634766 249.16088867 487.00634766 C249.49088867 486.01634766 249.82088867 485.02634766 250.16088867 484.00634766 C251.85776927 488.10971346 250.34055263 491.07152957 248.84838867 495.06884766 C248.39850586 496.29732422 247.94862305 497.52580078 247.48510742 498.79150391 C245.50671879 503.5944946 243.96718033 505.35698545 239.33276367 507.46728516 C238.31996338 507.93239502 237.30716309 508.39750488 236.26367188 508.87670898 C235.15725342 509.37323975 234.05083496 509.86977051 232.91088867 510.38134766 C231.76515381 510.90301514 230.61941895 511.42468262 229.43896484 511.9621582 C219.20537337 516.59625036 208.89621115 521.0558671 198.57714844 525.49560547 C191.3216561 528.61930605 184.13397494 531.83562084 176.99682617 535.22119141 C159.32652349 543.52497771 141.25510089 551.03891958 123.28930664 558.67431641 C120.45298272 559.8819786 117.6211087 561.09950309 114.78979492 562.31884766 C113.26797847 562.96543223 111.7458707 563.61133183 110.22338867 564.25634766 C109.56209961 564.54413086 108.90081055 564.83191406 108.21948242 565.12841797 C104.74852665 566.58141914 101.93347228 567.42320772 98.16088867 567.00634766 C97.16088867 566.00634766 97.16088867 566.00634766 97.15618896 564.22077942 C97.7053331 558.49820222 99.11760027 554.10523681 101.73901367 549.01806641 C102.28286713 547.920261 102.28286713 547.920261 102.83770752 546.80027771 C103.6138594 545.2370206 104.39614603 543.67679656 105.18408203 542.1194458 C106.85847076 538.80890438 108.50162404 535.48318503 110.14672852 532.15802002 C110.97888887 530.47657282 111.81254768 528.79586638 112.64770508 527.11590576 C116.09727419 520.17091753 119.41667447 513.17497801 122.66088867 506.13134766 C123.1675708 505.0337915 123.67425293 503.93623535 124.19628906 502.80541992 C125.55226403 499.8628934 126.90551047 496.91913341 128.25714111 493.97460938 C131.44848537 487.02421635 134.64778817 480.07748198 137.84838867 473.13134766 C138.41606461 471.89887802 138.41606461 471.89887802 138.99520874 470.64151001 C145.48439895 456.55988637 152.09159687 442.53665244 158.74804688 428.53344727 C163.22658908 419.10910845 167.65893927 409.66583453 172.03588867 400.19384766 C176.00883432 391.59718873 180.04514303 383.03556516 184.16088867 374.50634766 C191.84533992 358.57152622 199.24325286 342.50506677 206.64968872 326.43978882 C207.46948638 324.66161122 208.2893716 322.883474 209.10934448 321.1053772 C211.12685377 316.73043015 213.14334476 312.3550214 215.1574707 307.97851562 C215.90076774 306.36538341 216.64409325 304.75226431 217.38745117 303.13916016 C217.72442017 302.40594543 218.06138916 301.67273071 218.40856934 300.91729736 C218.72724976 300.22625916 219.04593018 299.53522095 219.37426758 298.82324219 C219.67165833 298.17164124 219.96904907 297.52004028 220.27545166 296.84869385 C221.11190548 295.10826794 222.06409321 293.42485097 223.02172852 291.74804688 C224.44397853 289.13620842 224.44397853 289.13620842 223.52783203 286.85742188 C222.15102427 284.99298957 220.781291 283.16394788 219.28979492 281.38916016 C218.72099609 280.70684326 218.15219727 280.02452637 217.56616211 279.3215332 C216.95804688 278.59877197 216.34993164 277.87601074 215.72338867 277.13134766 C211.20684226 271.71068005 206.74171673 266.26419401 202.41088867 260.69384766 C198.16684707 255.24312095 193.80130304 249.91201283 189.35229492 244.62744141 C188.62913086 243.76248047 187.9059668 242.89751953 187.16088867 242.00634766 C186.40678711 241.11044922 185.65268555 240.21455078 184.87573242 239.29150391 C183.16088867 237.00634766 183.16088867 237.00634766 183.16088867 235.00634766 C182.50088867 235.00634766 181.84088867 235.00634766 181.16088867 235.00634766 C179.75073242 233.42431641 179.75073242 233.42431641 178.09838867 231.19384766 C175.43788392 227.67210735 172.72267144 224.22125625 169.91088867 220.81884766 C166.29279603 216.40851749 162.70803359 211.97382975 159.16088867 207.50634766 C158.67974609 206.90669189 158.19860352 206.30703613 157.70288086 205.68920898 C155.68630131 203.13722538 154.19811934 201.11803966 153.16088867 198.00634766 C152.50088867 198.00634766 151.84088867 198.00634766 151.16088867 198.00634766 C149.89135742 196.60009766 149.89135742 196.60009766 148.34838867 194.50634766 C144.96552188 190.02633487 141.46471324 185.66310346 137.91088867 181.31884766 C133.7283284 176.19537614 129.5984365 171.03792474 125.53588867 165.81884766 C121.50485019 160.64696305 117.33840375 155.61217804 113.08105469 150.62548828 C108.99717293 145.83733704 105.06416453 140.94189481 101.16088867 136.00634766 C96.38793005 130.01151163 91.57392025 124.05327631 86.71557617 118.12744141 C82.01422468 112.38908244 77.34090177 106.62793624 72.6706543 100.86425781 C71.30329267 99.18158932 69.92897432 97.50496791 68.55151367 95.83056641 C67.4609668 94.49445313 67.4609668 94.49445313 66.34838867 93.13134766 C65.4105957 91.99052734 65.4105957 91.99052734 64.45385742 90.82666016 C63.16088867 89.00634766 63.16088867 89.00634766 63.16088867 87.00634766 C62.50088867 87.00634766 61.84088867 87.00634766 61.16088867 87.00634766 C59.49786551 85.0630743 57.94838914 83.10865109 56.41088867 81.06884766 C52.03459067 75.37559787 47.55522736 69.78557984 42.97338867 64.25634766 C38.69331419 59.08227927 34.44215609 53.89101051 30.26245117 48.63525391 C27.51798812 45.20212448 24.74627591 41.79153532 21.97338867 38.38134766 C21.42279785 37.70386475 20.87220703 37.02638184 20.30493164 36.32836914 C17.42239327 32.78283862 14.53609304 29.24043404 11.64526367 25.70166016 C11.07187256 24.9986377 10.49848145 24.29561523 9.90771484 23.57128906 C8.82325318 22.24176641 7.73757372 20.91323569 6.65039062 19.5859375 C5.14187791 17.73532042 3.64751762 15.87458411 2.16088867 14.00634766 C1.31264526 12.94565063 1.31264526 12.94565063 0.44726562 11.86352539 C-0.37898315 10.80307007 -0.37898315 10.80307007 -1.22192383 9.72119141 C-1.72481934 9.08044678 -2.22771484 8.43970215 -2.74584961 7.77954102 C-3.83911133 6.00634766 -3.83911133 6.00634766 -3.77661133 3.06884766 C-2.38542296 0.00823324 -2.38542296 0.00823324 0 0 Z " fill="#593CFD" transform="translate(198.839111328125,264.99365234375)"/>
<path d="M0 0 C2.6371831 1.65037558 4.74781775 3.67777579 6.9375 5.875 C7.52595703 6.43058594 8.11441406 6.98617188 8.72070312 7.55859375 C10.20080582 8.98540587 11.60721516 10.48783361 13 12 C13 12.66 13 13.32 13 14 C13.66 14 14.32 14 15 14 C15 14.66 15 15.32 15 16 C15.53109375 16.20238281 16.0621875 16.40476562 16.609375 16.61328125 C20.04132937 18.60403909 22.5114173 21.34309385 25.25 24.1875 C28.69645657 27.74607022 32.1656635 31.19187775 35.921875 34.42578125 C40.88039527 38.70408204 45.41703122 43.36658261 50 48.0390625 C53.91561959 52.00056825 57.93621009 55.74406719 62.15625 59.37890625 C65.65393365 62.45420014 68.84110509 65.8252281 72.09375 69.15625 C74.23174922 71.29802928 76.45982103 73.29550376 78.75 75.2734375 C83.49899433 79.39117951 88.01627314 83.7216005 92.5 88.125 C93.32242188 88.91003906 94.14484375 89.69507813 94.9921875 90.50390625 C95.76820313 91.26832031 96.54421875 92.03273438 97.34375 92.8203125 C98.39852539 93.84535889 98.39852539 93.84535889 99.47460938 94.89111328 C101.3388861 97.46851763 101.3938799 98.88530881 101 102 C100 103 100 103 97.65002441 103.08901978 C96.60342651 103.07205048 95.55682861 103.05508118 94.47851562 103.03759766 C93.28955688 103.02072906 92.10059814 103.00386047 90.87561035 102.98648071 C89.56572144 102.9625827 88.25583252 102.93868469 86.90625 102.9140625 C85.52616988 102.89221688 84.14608339 102.87077106 82.76599121 102.84970093 C79.83677253 102.80393532 76.90763561 102.75481872 73.97851562 102.703125 C70.36144027 102.63931847 66.74430995 102.58094929 63.12710571 102.52498245 C39.74794492 102.16186359 16.37418435 101.59801786 -7 101 C-7.05819916 102.2306015 -7.11639832 103.461203 -7.17636108 104.72909546 C-7.72704484 116.3521251 -8.28572114 127.97474699 -8.8521328 139.5970211 C-9.14304393 145.57149679 -9.43118233 151.54607884 -9.71289062 157.52099609 C-9.98508887 163.29200707 -10.26469255 169.06261681 -10.54933548 174.83302689 C-10.65640198 177.02959235 -10.76084378 179.22628744 -10.86256027 181.42310715 C-11.00598508 184.51081311 -11.15891553 187.59791742 -11.31396484 190.68505859 C-11.35352798 191.58417969 -11.39309113 192.48330078 -11.43385315 193.40966797 C-11.74873109 199.41750094 -12.6712148 205.13410225 -14 211 C-14.66 210.67 -15.32 210.34 -16 210 C-16.226875 209.13375 -16.45375 208.2675 -16.6875 207.375 C-18.20788815 203.46543048 -20.07286448 201.67284951 -23.078125 198.84765625 C-24.99443465 197.00535043 -26.71273182 195.08395995 -28.4375 193.0625 C-30.85617779 190.25423653 -33.35899683 187.60029407 -36 185 C-39.1562085 181.88595459 -42.09052124 178.6573909 -44.984375 175.30078125 C-52.59018825 166.61895178 -60.60203966 158.28168418 -68.50415039 149.87084961 C-72.17587387 145.95881903 -75.82145007 142.02603821 -79.4375 138.0625 C-83.91070097 133.16264499 -88.44649581 128.32526013 -93 123.5 C-98.49452191 117.67664171 -103.9484557 111.82157266 -109.34375 105.90625 C-111.77766041 103.24326566 -114.22507157 100.59363519 -116.67724609 97.94750977 C-121.08780751 93.18708854 -125.4608492 88.40742145 -129.6953125 83.48828125 C-130.75115971 82.28385674 -131.86742512 81.13257488 -133 80 C-128.69813057 76.31884119 -124.05052498 73.5423103 -119.1875 70.6875 C-102.02110236 60.49252581 -85.17897677 49.78490955 -68.38085938 38.99682617 C-60.05070807 33.65355833 -51.66742387 28.39912858 -43.26806641 23.16552734 C-37.94992742 19.84978253 -32.64381859 16.51860506 -27.375 13.125 C-25.79138672 12.10986328 -25.79138672 12.10986328 -24.17578125 11.07421875 C-21.85896051 9.56101849 -19.57183243 8.02518648 -17.29296875 6.45703125 C-16.66922363 6.03599121 -16.04547852 5.61495117 -15.40283203 5.18115234 C-14.21887147 4.38106013 -13.04321051 3.56847172 -11.87841797 2.74072266 C-7.77911263 -0.00570103 -4.87388836 -0.84833755 0 0 Z " fill="#583BFE" transform="translate(726,320)"/>
<path d="M0 0 C7.26140237 0.64918615 13.9018549 2.475423 20.84838867 4.63134766 C22.03319824 4.99035156 23.21800781 5.34935547 24.4387207 5.71923828 C28.01585783 6.80516346 31.58894348 7.90347736 35.16088867 9.00634766 C38.95189803 10.17516571 42.74335627 11.34248029 46.53588867 12.50634766 C47.44250244 12.78526855 48.34911621 13.06418945 49.28320312 13.3515625 C58.54599692 16.17434087 67.88163464 18.7282113 77.22875977 21.25439453 C79.51876945 21.8760821 81.80600072 22.50812693 84.08984375 23.15209961 C85.99400698 23.68176549 87.90719952 24.18120776 89.83154297 24.63208008 C94.08135032 25.74707858 96.45924176 26.81925918 98.94604492 30.52587891 C99.7332047 31.94163511 100.49139015 33.37379946 101.22338867 34.81884766 C101.63693604 35.57641357 102.0504834 36.33397949 102.4765625 37.11450195 C103.32068676 38.66241462 104.15404977 40.21624634 104.97631836 41.77587891 C106.68974215 45.00214432 108.51963776 48.15708886 110.34838867 51.31884766 C110.99420898 52.45451172 111.6400293 53.59017578 112.30541992 54.76025391 C114.02714488 57.77236641 115.77628701 60.76625532 117.53588867 63.75634766 C120.37854455 68.61388829 123.12516262 73.51887573 125.84838867 78.44384766 C136.47444489 97.64965724 147.40923024 116.68580445 158.91088867 135.38134766 C162.25495421 140.81702616 165.44970713 146.27991484 168.44604492 151.91650391 C170.86895109 156.28215032 173.45569363 160.54476901 176.03588867 164.81884766 C180.08849163 171.53395592 184.06396971 178.27601234 187.93041992 185.10009766 C190.81711507 190.17786615 193.7753645 195.21403675 196.72338867 200.25634766 C200.56150854 206.82240469 204.39084687 213.3932132 208.18823242 219.98291016 C208.68801353 220.85018738 208.68801353 220.85018738 209.19789124 221.73498535 C210.80377123 224.5227666 212.40801524 227.31147899 214.01074219 230.10107422 C217.23740457 235.70857055 220.51608844 241.27836713 223.85717773 246.81835938 C226.43158292 251.13892479 228.77685073 255.57884863 231.16088867 260.00634766 C232.81088867 252.08634766 234.46088867 244.16634766 236.16088867 236.00634766 C236.49088867 236.00634766 236.82088867 236.00634766 237.16088867 236.00634766 C237.36983069 242.83875153 236.62121649 249.00300295 235.28588867 255.69384766 C232.777416 268.54280213 230.98222329 281.33958918 230.09057617 294.40478516 C230.00462189 295.60575836 229.9186676 296.80673157 229.83010864 298.0440979 C229.56071792 301.82286881 229.29817695 305.60207782 229.03588867 309.38134766 C228.85275092 311.96731749 228.66916108 314.55325535 228.48510742 317.13916016 C228.03848369 323.42786317 227.59745928 329.71693916 227.16088867 336.00634766 C226.83088867 336.00634766 226.50088867 336.00634766 226.16088867 336.00634766 C226.04324786 327.14407316 226.25372947 318.37537007 226.80297852 309.53076172 C227.17494555 303.35100609 227.27014307 297.19743031 227.16088867 291.00634766 C226.79737305 291.8590625 226.79737305 291.8590625 226.42651367 292.72900391 C224.27418221 297.68764446 221.92742429 302.36252 219.16088867 307.00634766 C218.50088867 307.00634766 217.84088867 307.00634766 217.16088867 307.00634766 C217.22276367 308.26447266 217.28463867 309.52259766 217.34838867 310.81884766 C217.35531319 314.75889827 217.35531319 314.75889827 215.78588867 316.75634766 C215.24963867 317.16884766 214.71338867 317.58134766 214.16088867 318.00634766 C212.98514156 320.10624418 212.98514156 320.10624418 212.16088867 322.00634766 C211.50088867 322.00634766 210.84088867 322.00634766 210.16088867 322.00634766 C209.72776367 323.70791016 209.72776367 323.70791016 209.28588867 325.44384766 C208.91463867 326.61947266 208.54338867 327.79509766 208.16088867 329.00634766 C207.50088867 329.33634766 206.84088867 329.66634766 206.16088867 330.00634766 C206.80308607 325.34419804 208.69362628 321.41134536 210.72338867 317.22119141 C211.07473877 316.48308731 211.42608887 315.74498322 211.78808594 314.98451233 C212.9070779 312.63506097 214.03334516 310.28920556 215.16088867 307.94384766 C216.28775205 305.59461176 217.41292468 303.24462229 218.53369141 300.89247131 C219.23000486 299.43157623 219.92989536 297.97237934 220.63378906 296.51512146 C222.85175423 291.91168341 222.85175423 291.91168341 224.16088867 287.00634766 C222.89555297 285.01709757 222.89555297 285.01709757 220.91088867 283.13134766 C217.28055745 279.27926845 213.96024885 275.31130141 210.72338867 271.13134766 C207.45274013 266.92862582 204.16488746 262.74814618 200.78588867 258.63134766 C200.07819336 257.76896484 199.37049805 256.90658203 198.64135742 256.01806641 C197.26497388 254.34689836 195.88774088 252.67642513 194.50708008 251.00878906 C192.69981075 248.82404276 190.89888988 246.63417322 189.09838867 244.44384766 C188.51331543 243.74018066 187.92824219 243.03651367 187.32543945 242.31152344 C186.51502197 241.32321533 186.51502197 241.32321533 185.68823242 240.31494141 C185.20088623 239.72511475 184.71354004 239.13528809 184.21142578 238.52758789 C183.16088867 237.00634766 183.16088867 237.00634766 183.16088867 235.00634766 C182.50088867 235.00634766 181.84088867 235.00634766 181.16088867 235.00634766 C179.75073242 233.42431641 179.75073242 233.42431641 178.09838867 231.19384766 C175.43788392 227.67210735 172.72267144 224.22125625 169.91088867 220.81884766 C166.29279603 216.40851749 162.70803359 211.97382975 159.16088867 207.50634766 C158.67974609 206.90669189 158.19860352 206.30703613 157.70288086 205.68920898 C155.68630131 203.13722538 154.19811934 201.11803966 153.16088867 198.00634766 C152.50088867 198.00634766 151.84088867 198.00634766 151.16088867 198.00634766 C149.89135742 196.60009766 149.89135742 196.60009766 148.34838867 194.50634766 C144.96552188 190.02633487 141.46471324 185.66310346 137.91088867 181.31884766 C133.7283284 176.19537614 129.5984365 171.03792474 125.53588867 165.81884766 C121.50485019 160.64696305 117.33840375 155.61217804 113.08105469 150.62548828 C108.99717293 145.83733704 105.06416453 140.94189481 101.16088867 136.00634766 C96.38793005 130.01151163 91.57392025 124.05327631 86.71557617 118.12744141 C82.01422468 112.38908244 77.34090177 106.62793624 72.6706543 100.86425781 C71.30329267 99.18158932 69.92897432 97.50496791 68.55151367 95.83056641 C67.4609668 94.49445313 67.4609668 94.49445313 66.34838867 93.13134766 C65.4105957 91.99052734 65.4105957 91.99052734 64.45385742 90.82666016 C63.16088867 89.00634766 63.16088867 89.00634766 63.16088867 87.00634766 C62.50088867 87.00634766 61.84088867 87.00634766 61.16088867 87.00634766 C59.49786551 85.0630743 57.94838914 83.10865109 56.41088867 81.06884766 C52.03459067 75.37559787 47.55522736 69.78557984 42.97338867 64.25634766 C38.69331419 59.08227927 34.44215609 53.89101051 30.26245117 48.63525391 C27.51798812 45.20212448 24.74627591 41.79153532 21.97338867 38.38134766 C21.42279785 37.70386475 20.87220703 37.02638184 20.30493164 36.32836914 C17.42239327 32.78283862 14.53609304 29.24043404 11.64526367 25.70166016 C11.07187256 24.9986377 10.49848145 24.29561523 9.90771484 23.57128906 C8.82325318 22.24176641 7.73757372 20.91323569 6.65039062 19.5859375 C5.14187791 17.73532042 3.64751762 15.87458411 2.16088867 14.00634766 C1.31264526 12.94565063 1.31264526 12.94565063 0.44726562 11.86352539 C-0.37898315 10.80307007 -0.37898315 10.80307007 -1.22192383 9.72119141 C-1.72481934 9.08044678 -2.22771484 8.43970215 -2.74584961 7.77954102 C-3.83911133 6.00634766 -3.83911133 6.00634766 -3.77661133 3.06884766 C-2.38542296 0.00823324 -2.38542296 0.00823324 0 0 Z " fill="#5133FB" transform="translate(198.839111328125,264.99365234375)"/>
<path d="M0 0 C1.43877142 4.31631425 0.42275586 7.74670881 -1 12 C-3.0625 14.875 -3.0625 14.875 -5 17 C-5.33 17.99 -5.66 18.98 -6 20 C-6.66 20 -7.32 20 -8 20 C-7.938125 21.258125 -7.87625 22.51625 -7.8125 23.8125 C-7.80557548 27.75255061 -7.80557548 27.75255061 -9.375 29.75 C-9.91125 30.1625 -10.4475 30.575 -11 31 C-12.17574711 33.09989652 -12.17574711 33.09989652 -13 35 C-13.66 35 -14.32 35 -15 35 C-15.433125 36.7015625 -15.433125 36.7015625 -15.875 38.4375 C-16.24625 39.613125 -16.6175 40.78875 -17 42 C-17.99 42.495 -17.99 42.495 -19 43 C-18.35409787 38.34781234 -16.48404694 34.40554766 -14.47265625 30.21484375 C-14.12367783 29.47673965 -13.7746994 28.73863556 -13.41514587 27.97816467 C-12.30278389 25.62877504 -11.18272102 23.28315085 -10.0625 20.9375 C-9.31265113 19.35635678 -8.56329687 17.77497888 -7.81445312 16.19335938 C-2.12280914 4.18849932 -2.12280914 4.18849932 0 0 Z " fill="#351AF3" transform="translate(424,552)"/>
<path d="M0 0 C0.99 0.33 1.98 0.66 3 1 C2.67 2.65 2.34 4.3 2 6 C-3.28 6 -8.56 6 -14 6 C-14 5.01 -14 4.02 -14 3 C-9.38 2.67 -4.76 2.34 0 2 C0 1.34 0 0.68 0 0 Z " fill="#5D41FE" transform="translate(824,417)"/>
<path d="M0 0 C1.72251754 4.0845326 0.07280563 7.36973696 -1.4375 11.25 C-1.68048828 11.8996875 -1.92347656 12.549375 -2.17382812 13.21875 C-2.77285994 14.81616817 -3.38514321 16.40860594 -4 18 C-4.99 18 -5.98 18 -7 18 C-6.125 13.25 -6.125 13.25 -5 11 C-4.34 11 -3.68 11 -3 11 C-3 9.35 -3 7.7 -3 6 C-3.66 5.67 -4.32 5.34 -5 5 C-4.360625 4.731875 -3.72125 4.46375 -3.0625 4.1875 C-0.66868314 3.11332248 -0.66868314 3.11332248 0 0 Z " fill="#3B1EF4" transform="translate(449,749)"/>
<path d="M0 0 C3.25 -0.3125 3.25 -0.3125 7 0 C9.4375 2.5 9.4375 2.5 11 5 C10.01 5 9.02 5 8 5 C6.9458482 8.16245541 6.68724328 10.86948218 6.4375 14.1875 C6.35371094 15.27417969 6.26992188 16.36085938 6.18359375 17.48046875 C6.12300781 18.31191406 6.06242188 19.14335937 6 20 C5.67 20 5.34 20 5 20 C5 14.06 5 8.12 5 2 C3.02 2 1.04 2 -1 2 C-0.67 1.34 -0.34 0.68 0 0 Z " fill="#4425FE" transform="translate(719,320)"/>
<path d="M0 0 C0.66 1.32 1.32 2.64 2 4 C1.54625 4.4125 1.0925 4.825 0.625 5.25 C-1.05950374 7.06408095 -1.99265971 8.75285627 -3 11 C-3.66 11 -4.32 11 -5 11 C-5.28875 12.134375 -5.5775 13.26875 -5.875 14.4375 C-6.24625 15.613125 -6.6175 16.78875 -7 18 C-7.66 18.33 -8.32 18.66 -9 19 C-8.37115614 15.15706528 -7.2348198 11.91660356 -5.625 8.375 C-5.20476562 7.43398438 -4.78453125 6.49296875 -4.3515625 5.5234375 C-3.1073461 3.20042075 -1.97017809 1.71670489 0 0 Z " fill="#492DF4" transform="translate(414,576)"/>
<path d="M0 0 C0.33 0.99 0.66 1.98 1 3 C-0.28913487 3.67154933 -1.58140204 4.33708859 -2.875 5 C-3.59429688 5.37125 -4.31359375 5.7425 -5.0546875 6.125 C-7 7 -7 7 -9 7 C-8.34 8.65 -7.68 10.3 -7 12 C-8.65 10.68 -10.3 9.36 -12 8 C-8.2064129 4.78119883 -4.34170523 2.3836813 0 0 Z " fill="#3C1FF7" transform="translate(605,392)"/>
<path d="M0 0 C3.86715038 2.12246797 6.74405677 4.52746145 9.8125 7.6875 C10.60269531 8.49574219 11.39289063 9.30398438 12.20703125 10.13671875 C13.09455078 11.05904297 13.09455078 11.05904297 14 12 C13.67 12.66 13.34 13.32 13 14 C11.98679687 12.9171875 11.98679687 12.9171875 10.953125 11.8125 C10.06109375 10.884375 9.1690625 9.95625 8.25 9 C7.36828125 8.071875 6.4865625 7.14375 5.578125 6.1875 C3.05517842 3.5686817 3.05517842 3.5686817 -1 4 C-0.67 2.68 -0.34 1.36 0 0 Z " fill="#5030FE" transform="translate(473,275)"/>
<path d="M0 0 C0.33 0.66 0.66 1.32 1 2 C0.34 2 -0.32 2 -1 2 C-1.268125 2.639375 -1.53625 3.27875 -1.8125 3.9375 C-3 6 -3 6 -6 7 C-6.66 6.34 -7.32 5.68 -8 5 C-4.04 2.525 -4.04 2.525 0 0 Z " fill="#4324FE" transform="translate(631,376)"/>
<path d="M0 0 C1 2 1 2 0.29296875 4.12890625 C-0.07183594 4.93199219 -0.43664062 5.73507812 -0.8125 6.5625 C-1.16957031 7.36816406 -1.52664063 8.17382812 -1.89453125 9.00390625 C-3 11 -3 11 -5 12 C-4.42365861 7.24518354 -2.44931479 4.02951788 0 0 Z " fill="#3016F6" transform="translate(410,583)"/>
<path d="M0 0 C2.31 0 4.62 0 7 0 C6.67 0.66 6.34 1.32 6 2 C5.34 2 4.68 2 4 2 C3.67 2.99 3.34 3.98 3 5 C2.01 4.34 1.02 3.68 0 3 C0 2.01 0 1.02 0 0 Z " fill="#684DFF" transform="translate(239,194)"/>
<path d="M0 0 C0.6875 1.6875 0.6875 1.6875 1 4 C-1.26153846 8.63076923 -1.26153846 8.63076923 -4 10 C-3.52449439 8.51965236 -3.04448784 7.04074979 -2.5625 5.5625 C-2.29566406 4.73878906 -2.02882813 3.91507813 -1.75390625 3.06640625 C-1 1 -1 1 0 0 Z " fill="#4B2CFE" transform="translate(338,736)"/>
<path d="M0 0 C2.88575819 0.39803561 3.82189513 0.79009069 5.75 3.0625 C6.1625 3.701875 6.575 4.34125 7 5 C3.47967572 5 2.5614657 4.29648649 0 2 C0 1.34 0 0.68 0 0 Z " fill="#5E42FE" transform="translate(800,393)"/>
</svg>
